#N canvas 127 188 1229 499 10;
#X obj -761 15 r X00;
#X obj -692 15 r XX0;
#X obj -637 15 r 0X0;
#X obj -586 15 r 0XX;
#X obj -533 15 r 00X;
#X obj -469 15 r X0X;
#X obj -402 15 r XXX;
#X obj -758 339 sel 1;
#X msg -758 361 set Bb;
#X msg -641 360 set B;
#X obj -641 339 sel 1;
#X obj -524 339 sel 1;
#X msg -524 360 set C;
#X obj -758 84 expr if($f1 < 14.995 || ($f1 > 28.32 && $f1 <= 30) ||
($f1 > 56.6 && $f1 <= 60) || ($f1 > 113.2 && $f1 <= 120.01) || ($f1
> 226.4 && $f1 <= 240.02) || ($f1 > 452.8 && $f1 <= 480.04) || ($f1
> 905.6 && $f1 <= 960.08) \, 1 \, 0) \; if(($f1 > 14.995 && $f1 <=
15.89) || ($f1 > 30 && $f1 <= 31.78) || ($f1 > 60 && $f1 <= 63.56)
|| ($f1 > 120.01 && $f1 <= 127.12) || ($f1 > 240.02 && $f1 <= 254.24)
|| ($f1 > 480.04 && $f1 <= 508.48) || ($f1 > 960.08 && $f1 <= 1016.96)
\, 1 \, 0) \; if(($f1 > 15.89 && $f1 <= 16.84) || ($f1 > 31.78 && $f1
<= 33.67) || ($f1 > 63.56 && $f1 <= 67.34) || ($f1 > 127.12 && $f1
<= 134.68) || ($f1 > 254.24 && $f1 <= 269.36) || ($f1 > 506.48 && $f1
<= 538.72) || ($f1 > 1016.96 && $f1 <= 1077.44) \, 1 \, 0) \; if(($f1
> 16.84 && $f1 <= 17.83) || ($f1 > 33.67 && $f1 <= 35.67) || ($f1 >
67.34 && $f1 <= 71.34) || ($f1 > 134.68 && $f1 <= 142.68) || ($f1 >
269.36 && $f1 <= 285.36) || ($f1 > 538.72 && $f1 <= 570.72) || ($f1
> 1077.44 && $f1 <= 1141.44) \, 1 \, 0) \;;
#X obj -407 340 sel 1;
#X obj -344 338 sel 1;
#X obj -227 338 sel 1;
#X obj -110 338 sel 1;
#X obj 7 339 sel 1;
#X msg -344 360 set D;
#X msg -407 361 set Db;
#X msg -227 359 set Eb;
#X msg -110 359 set E;
#X msg 7 360 set F;
#X obj -344 71 expr if(($f1 > 17.83 && $f1 <= 18.9) || ($f1 > 35.67
&& $f1 <= 37.8) || ($f1 > 71.34 && $f1 <= 75.6) || ($f1 > 142.68 &&
$f1 <= 151.2) || ($f1 > 285.36 && $f1 <= 302.4) || ($f1 > 570.72 &&
$f1 <= 604.8) || ($f1 > 1141.44 && $f1 <= 1209.6) \, 1 \, 0) \; if(($f1
> 18.9 && $f1 <= 20.03) || ($f1 > 37.8 && $f1 <= 40.05) || ($f1 > 75.6
&& $f1 <= 80.1) || ($f1 > 151.2 && $f1 <= 160.2) || ($f1 > 302.4 &&
$f1 <= 320.4) || ($f1 > 604.8 && $f1 <= 640.8) || ($f1 > 1209.6 &&
$f1 <= 1281.6) \, 1 \, 0) \; if(($f1 > 20.03 && $f1 <= 21.22) || ($f1
> 40.05 && $f1 <= 42.43) || ($f1 > 80.1 && $f1 <= 84.86) || ($f1 >
160.2 && $f1 <= 169.72) || ($f1 > 320.4 && $f1 <= 339.44) || ($f1 >
640.8 && $f1 <= 678.88) || ($f1 > 1281.6 && $f1 <= 1357.76) \, 1 \,
0) \; if(($f1 > 21.22 && $f1 <= 22.48) || ($f1 > 42.43 && $f1 <= 44.95)
|| ($f1 > 84.86 && $f1 <= 89.9) || ($f1 > 169.72 && $f1 <= 179.8) ||
($f1 > 339.44 && $f1 <= 359.6) || ($f1 > 678.88 && $f1 <= 719.2) ||
($f1 > 1357.76 && $f1 <= 1438.4) \, 1 \, 0) \;;
#X obj 53 340 sel 1;
#X obj 170 340 sel 1;
#X obj 287 340 sel 1;
#X obj 404 341 sel 1;
#X msg 53 362 set Gb;
#X msg 170 361 set G;
#X msg 287 361 set Ab;
#X msg 404 362 set A;
#X obj 53 68 expr if(($f1 > 22.48 && $f1 <= 23.81) || ($f1 > 44.95
&& $f1 <= 47.62) || ($f1 > 89.9 && $f1 <= 95.24) || ($f1 > 179.8 &&
$f1 <= 190.48) || ($f1 > 359.6 && $f1 <= 380.96) || ($f1 > 719.2 &&
$f1 <= 761.92) || ($f1 > 1438.4 && $f1 <= 1523.84) \, 1 \, 0) \; if(($f1
> 23.81 && $f1 <= 25.23) || ($f1 > 47.62 && $f1 <= 50.46) || ($f1 >
95.24 && $f1 <= 100.92) || ($f1 > 190.48 && $f1 <= 201.84) || ($f1
> 380.96 && $f1 <= 403.68) || ($f1 > 761.92 && $f1 <= 807.36) || ($f1
> 1523.84 && $f1 <= 1614.72) \, 1 \, 0) \; if(($f1 > 25.23 && $f1 <=
26.73) || ($f1 > 50.46 && $f1 <= 53.46) || ($f1 > 100.92 && $f1 <=
106.92) || ($f1 > 201.84 && $f1 <= 213.84) || ($f1 > 403.68 && $f1
<= 427.68) || ($f1 > 807.36 && $f1 <= 855.36) || ($f1 > 1614.72 &&
$f1 <= 1710.72) \, 1 \, 0) \; if(($f1 > 26.73 && $f1 <= 28.32) || ($f1
> 53.46 && $f1 <= 56.64) || ($f1 > 106.92 && $f1 <= 113.28) || ($f1
> 213.84 && $f1 <= 226.56) || ($f1 > 427.68 && $f1 <= 453.12) || ($f1
> 855.36 && $f1 <= 906.24) || ($f1 > 1710.72 && $f1 <= 1812.48) \,
1 \, 0) \;;
#X obj -298 33 inlet;
#X obj -169 423 outlet;
#X connect 7 0 8 0;
#X connect 8 0 35 0;
#X connect 9 0 35 0;
#X connect 10 0 9 0;
#X connect 11 0 12 0;
#X connect 12 0 35 0;
#X connect 13 0 7 0;
#X connect 13 1 10 0;
#X connect 13 2 11 0;
#X connect 13 3 14 0;
#X connect 14 0 20 0;
#X connect 15 0 19 0;
#X connect 16 0 21 0;
#X connect 17 0 22 0;
#X connect 18 0 23 0;
#X connect 19 0 35 0;
#X connect 20 0 35 0;
#X connect 21 0 35 0;
#X connect 22 0 35 0;
#X connect 23 0 35 0;
#X connect 24 0 15 0;
#X connect 24 1 16 0;
#X connect 24 2 17 0;
#X connect 24 3 18 0;
#X connect 25 0 29 0;
#X connect 26 0 30 0;
#X connect 27 0 31 0;
#X connect 28 0 32 0;
#X connect 29 0 35 0;
#X connect 30 0 35 0;
#X connect 31 0 35 0;
#X connect 32 0 35 0;
#X connect 33 0 25 0;
#X connect 33 1 26 0;
#X connect 33 2 27 0;
#X connect 33 3 28 0;
#X connect 34 0 13 0;
#X connect 34 0 24 0;
#X connect 34 0 33 0;
