#N canvas 725 22 655 501 10;
#X obj 226 401 / 2;
#X floatatom 226 376 7 0 0 0 - - -;
#X floatatom 165 34 7 0 0 2 Dimensions L -;
#X obj 149 401 pow 0.5;
#X floatatom 226 247 5 0 0 0 - temp -;
#X obj 226 273 / 273.15;
#X obj 226 300 + 1;
#X obj 226 327 pow 0.5;
#X obj 226 353 * 331.5;
#X text 272 247 input temperature in C;
#X obj 149 450 *;
#X text 271 375 speed of sound;
#X floatatom 165 79 7 0 0 0 - W -;
#X floatatom 165 124 7 0 0 0 - H -;
#X floatatom -210 265 5 0 0 0 - - -;
#X floatatom -86 267 5 0 0 0 - - -;
#X floatatom 19 264 5 0 0 0 - - -;
#X text -210 247 mode #;
#X text -167 247 dimension;
#X text -156 225 Length;
#X text -44 225 Width;
#X text -41 246 D;
#X text -85 245 M #;
#X text 57 229 Height;
#X text 20 243 M #;
#X text 65 244 D;
#X obj -210 286 /;
#X obj -86 288 /;
#X obj 19 284 /;
#X obj -210 310 pow 2;
#X obj -86 311 pow 2;
#X obj 19 310 pow 2;
#X obj 149 378 +;
#X obj -40 161 bng 15 250 50 0 empty empty empty 17 7 0 10 -262144
-1 -1;
#X obj -210 402 pow 0.5;
#X obj -86 402 pow 0.5;
#X obj 19 402 pow 0.5;
#X obj -210 450 *;
#X obj -86 450 *;
#X obj 18 450 *;
#X obj -140 355 +;
#X obj -35 355 +;
#X obj -140 402 pow 0.5;
#X obj -35 402 pow 0.5;
#X obj -141 450 *;
#X obj -35 450 *;
#X obj 82 401 pow 0.5;
#X obj 82 450 *;
#X obj 82 359 +;
#X obj 20 35 hradio 15 1 0 9 modeL empty Length_Mode 0 -7 2 10 -262144
-1 -1 6;
#X floatatom -217 201 5 0 0 0 - modeL -;
#X obj -217 225 + 1;
#X obj 20 80 hradio 15 1 0 9 modeW empty Width_Mode 0 -7 2 10 -262144
-1 -1 8;
#X floatatom -92 200 5 0 0 0 - modeW -;
#X obj -92 225 + 1;
#X obj 20 125 hradio 15 1 0 9 modeH empty Height_Mode 0 -7 2 10 -262144
-1 -1 7;
#X obj -5 240 + 1;
#X floatatom -5 217 5 0 0 0 - modeH -;
#X floatatom 165 173 5 0 0 2 Temp. - temp;
#N canvas 557 22 462 438 korginput 0;
#X obj 326 0 > 0;
#X obj 308 21 spigot;
#X obj 157 69 outlet;
#X obj 224 69 outlet;
#X obj 308 88 outlet;
#X obj 354 88 outlet;
#X obj 157 41 t b f;
#X obj 210 41 t b f;
#X obj 308 62 t b f;
#X obj 308 -216 - 51;
#X obj 308 -195 t f f;
#X obj 308 -24 t f f;
#X obj 158 -293 notein;
#X obj 158 -213 stripnote;
#X obj 158 -188 - 35;
#X obj 158 -160 t f f;
#X obj 157 -118 spigot;
#X obj 185 -139 % 2;
#X obj 210 -99 spigot;
#X obj 228 -140 % 2;
#X obj 228 -121 - 1;
#X obj 210 -78 / 2;
#X obj 157 -98 + 1;
#X obj 157 -78 / 2;
#X obj 184 -33 < 9;
#X obj 157 -1 spigot;
#X obj 157 -55 t f f;
#X obj 237 -33 < 9;
#X obj 210 -2 spigot;
#X obj 210 -56 t f f;
#X obj 308 -152 spigot;
#X obj 336 -173 % 2;
#X obj 308 -132 + 1;
#X obj 308 -112 / 2;
#X obj 335 -67 < 9;
#X obj 308 -45 spigot;
#X obj 308 -89 t f f;
#X obj 209 -250 tgl 15 0 empty empty empty 17 7 0 10 -262144 -1 -1
0 1;
#X obj 158 -232 *;
#X obj 194 -232 *;
#X obj 308 -295 notein;
#X obj 308 -239 stripnote;
#X obj 359 -276 tgl 15 0 empty empty empty 17 7 0 10 -262144 -1 -1
0 1;
#X obj 308 -258 *;
#X obj 344 -258 *;
#X floatatom 25 -236 5 0 0 0 - - -;
#X floatatom 44 -195 5 0 0 0 - - -;
#X floatatom 70 -233 5 0 0 0 - - -;
#X floatatom 396 -238 5 0 0 0 - - -;
#X obj 27 -266 notein;
#X obj 373 -136 spigot;
#X obj 391 -177 % 2;
#X obj 391 -158 - 1;
#X obj 373 -115 / 2;
#X obj 400 -70 < 9;
#X obj 373 -47 spigot;
#X obj 373 -93 t f f;
#X obj 400 87 outlet;
#X obj 374 60 t b f;
#X obj 18 -109 ctlin;
#X floatatom 16 -68 5 0 0 0 - - -;
#X floatatom 35 -46 5 0 0 0 - - -;
#X floatatom 69 -66 5 0 0 0 - - -;
#X obj 209 -270 sel 1;
#X obj 359 -296 sel 1;
#X obj 157 19 - 1;
#X obj 210 19 - 1;
#X obj 391 -2 > 0;
#X obj 373 19 spigot;
#X obj 373 -26 t f f;
#X text 47 -140 top vs. bottom row;
#X obj 308 42 - 1;
#X obj 374 39 - 1;
#X connect 0 0 1 1;
#X connect 1 0 71 0;
#X connect 6 0 4 0;
#X connect 6 1 2 0;
#X connect 7 0 4 0;
#X connect 7 1 3 0;
#X connect 8 0 4 0;
#X connect 8 1 5 0;
#X connect 9 0 10 0;
#X connect 10 0 30 0;
#X connect 10 0 50 0;
#X connect 10 1 31 0;
#X connect 10 1 51 0;
#X connect 11 0 1 0;
#X connect 11 1 0 0;
#X connect 12 0 38 0;
#X connect 12 1 39 0;
#X connect 12 2 63 0;
#X connect 13 0 14 0;
#X connect 14 0 15 0;
#X connect 15 0 16 0;
#X connect 15 0 18 0;
#X connect 15 1 17 0;
#X connect 15 1 19 0;
#X connect 16 0 22 0;
#X connect 17 0 16 1;
#X connect 18 0 21 0;
#X connect 19 0 20 0;
#X connect 20 0 18 1;
#X connect 21 0 29 0;
#X connect 22 0 23 0;
#X connect 23 0 26 0;
#X connect 24 0 25 1;
#X connect 25 0 65 0;
#X connect 26 0 25 0;
#X connect 26 1 24 0;
#X connect 27 0 28 1;
#X connect 28 0 66 0;
#X connect 29 0 28 0;
#X connect 29 1 27 0;
#X connect 30 0 32 0;
#X connect 31 0 30 1;
#X connect 32 0 33 0;
#X connect 33 0 36 0;
#X connect 34 0 35 1;
#X connect 35 0 11 0;
#X connect 36 0 35 0;
#X connect 36 1 34 0;
#X connect 37 0 38 1;
#X connect 37 0 39 1;
#X connect 38 0 13 0;
#X connect 39 0 13 1;
#X connect 40 0 43 0;
#X connect 40 1 44 0;
#X connect 40 2 64 0;
#X connect 41 0 9 0;
#X connect 42 0 43 1;
#X connect 42 0 44 1;
#X connect 43 0 41 0;
#X connect 43 0 48 0;
#X connect 44 0 41 1;
#X connect 49 0 45 0;
#X connect 49 1 46 0;
#X connect 49 2 47 0;
#X connect 50 0 53 0;
#X connect 51 0 52 0;
#X connect 52 0 50 1;
#X connect 53 0 56 0;
#X connect 54 0 55 1;
#X connect 55 0 69 0;
#X connect 56 0 55 0;
#X connect 56 1 54 0;
#X connect 58 0 4 0;
#X connect 58 1 57 0;
#X connect 59 0 60 0;
#X connect 59 1 61 0;
#X connect 59 2 62 0;
#X connect 63 0 37 0;
#X connect 64 0 42 0;
#X connect 65 0 6 0;
#X connect 66 0 7 0;
#X connect 67 0 68 1;
#X connect 68 0 72 0;
#X connect 69 0 68 0;
#X connect 69 1 67 0;
#X connect 71 0 8 0;
#X connect 72 0 58 0;
#X restore -104 -1 pd korginput;
#X obj -140 333 t b f;
#X obj -35 330 t b f;
#X obj 149 338 t b f;
#X obj 82 337 t b f;
#X obj -210 473 s X00;
#X obj -141 473 s XX0;
#X obj -86 473 s 0X0;
#X obj 149 473 s XXX;
#X obj 18 473 s 00X;
#X obj -35 473 s 0XX;
#X obj 82 473 s X0X;
#X obj -210 504 outlet;
#X obj -141 504 outlet;
#X obj -86 504 outlet;
#X obj -35 504 outlet;
#X obj 18 504 outlet;
#X obj 82 504 outlet;
#X obj 149 504 outlet;
#X obj 20 173 hradio 15 1 0 5 tan empty L/W_W/H_L/H_Ob_Ex 0 -8 2 8
-262144 -1 -1 0;
#X symbolatom 20 51 2 0 0 0 - L1 -;
#X symbolatom 35 51 2 0 0 0 - L2 -;
#X symbolatom 50 51 2 0 0 0 - L3 -;
#X symbolatom 65 51 2 0 0 0 - L4 -;
#X symbolatom 80 51 2 0 0 0 - L5 -;
#X symbolatom 95 51 2 0 0 0 - L6 -;
#X symbolatom 110 51 2 0 0 0 - L7 -;
#X symbolatom 125 51 2 0 0 0 - L8 -;
#X symbolatom 20 96 2 0 0 0 - W1 -;
#X symbolatom 35 96 2 0 0 0 - W2 -;
#X symbolatom 50 96 2 0 0 0 - W3 -;
#X symbolatom 65 96 2 0 0 0 - W4 -;
#X symbolatom 80 96 2 0 0 0 - W5 -;
#X symbolatom 95 96 2 0 0 0 - W6 -;
#X symbolatom 110 96 2 0 0 0 - W7 -;
#X symbolatom 125 96 2 0 0 0 - W8 -;
#X symbolatom 20 141 2 0 0 0 - H1 -;
#X symbolatom 35 141 2 0 0 0 - H2 -;
#X symbolatom 50 141 2 0 0 0 - H3 -;
#X symbolatom 65 141 2 0 0 0 - H4 -;
#X symbolatom 80 141 2 0 0 0 - H5 -;
#X symbolatom 95 141 2 0 0 0 - H6 -;
#X symbolatom 110 141 2 0 0 0 - H7 -;
#X symbolatom 125 141 2 0 0 0 - H8 -;
#N canvas 399 170 450 300 lengthnotes 0;
#X obj -164 122 notes;
#X obj -130 122 notes;
#X obj -97 122 notes;
#X obj -63 122 notes;
#X obj -29 122 notes;
#X obj 5 122 notes;
#X obj 39 122 notes;
#X obj 73 122 notes;
#X obj 107 122 notes;
#X obj 141 122 notes;
#X obj -164 145 s L1;
#X obj -130 145 s L2;
#X obj -97 145 s L3;
#X obj -63 145 s L4;
#X obj -29 145 s L5;
#X obj 5 145 s L6;
#X obj 39 145 s L7;
#X obj 73 145 s L8;
#X obj 107 145 s L9;
#X obj -77 -34 r modeL;
#X obj -148 0 r X00;
#X obj -164 101 f;
#X obj -130 101 f;
#X obj -97 101 f;
#X obj -63 101 f;
#X obj -29 101 f;
#X obj 5 101 f;
#X obj 39 101 f;
#X obj 73 101 f;
#X obj 107 101 f;
#X obj 141 101 f;
#X obj -77 17 bng 15 250 50 0 empty empty empty 17 7 0 10 -262144 -1
-1;
#X obj -62 17 bng 15 250 50 0 empty empty empty 17 7 0 10 -262144 -1
-1;
#X obj -47 17 bng 15 250 50 0 empty empty empty 17 7 0 10 -262144 -1
-1;
#X obj -32 17 bng 15 250 50 0 empty empty empty 17 7 0 10 -262144 -1
-1;
#X obj -17 17 bng 15 250 50 0 empty empty empty 17 7 0 10 -262144 -1
-1;
#X obj -2 17 bng 15 250 50 0 empty empty empty 17 7 0 10 -262144 -1
-1;
#X obj 13 17 bng 15 250 50 0 empty empty empty 17 7 0 10 -262144 -1
-1;
#X obj 28 17 bng 15 250 50 0 empty empty empty 17 7 0 10 -262144 -1
-1;
#X obj 43 17 bng 15 250 50 0 empty empty empty 17 7 0 10 -262144 -1
-1;
#X obj 58 17 bng 15 250 50 0 empty empty empty 17 7 0 10 -262144 -1
-1;
#X obj -77 0 route 0 1 2 3 4 5 6 7 8;
#X obj -164 62 delay 1;
#X obj -129 82 delay 1;
#X obj -97 61 delay 1;
#X obj -63 81 delay 1;
#X obj -29 61 delay 1;
#X obj 5 81 delay 1;
#X obj 39 60 delay 1;
#X obj 73 80 delay 1;
#X obj 107 61 delay 1;
#X connect 0 0 10 0;
#X connect 1 0 11 0;
#X connect 2 0 12 0;
#X connect 3 0 13 0;
#X connect 4 0 14 0;
#X connect 5 0 15 0;
#X connect 6 0 16 0;
#X connect 7 0 17 0;
#X connect 8 0 18 0;
#X connect 19 0 41 0;
#X connect 20 0 21 1;
#X connect 20 0 22 1;
#X connect 20 0 23 1;
#X connect 20 0 24 1;
#X connect 20 0 25 1;
#X connect 20 0 26 1;
#X connect 20 0 27 1;
#X connect 20 0 28 1;
#X connect 20 0 29 1;
#X connect 20 0 30 1;
#X connect 21 0 0 0;
#X connect 22 0 1 0;
#X connect 23 0 2 0;
#X connect 24 0 3 0;
#X connect 25 0 4 0;
#X connect 26 0 5 0;
#X connect 27 0 6 0;
#X connect 28 0 7 0;
#X connect 29 0 8 0;
#X connect 30 0 9 0;
#X connect 31 0 42 0;
#X connect 32 0 43 0;
#X connect 33 0 44 0;
#X connect 34 0 45 0;
#X connect 35 0 46 0;
#X connect 36 0 47 0;
#X connect 37 0 48 0;
#X connect 38 0 49 0;
#X connect 39 0 50 0;
#X connect 41 0 31 0;
#X connect 41 1 32 0;
#X connect 41 2 33 0;
#X connect 41 3 34 0;
#X connect 41 4 35 0;
#X connect 41 5 36 0;
#X connect 41 6 37 0;
#X connect 41 7 38 0;
#X connect 41 8 39 0;
#X connect 41 9 40 0;
#X connect 42 0 21 0;
#X connect 43 0 22 0;
#X connect 44 0 23 0;
#X connect 45 0 24 0;
#X connect 46 0 25 0;
#X connect 47 0 26 0;
#X connect 48 0 27 0;
#X connect 49 0 28 0;
#X connect 50 0 29 0;
#X restore -202 31 pd lengthnotes;
#N canvas 574 125 450 300 widthnotes 0;
#X obj -154 132 notes;
#X obj -120 132 notes;
#X obj -87 132 notes;
#X obj -53 132 notes;
#X obj -19 132 notes;
#X obj 15 132 notes;
#X obj 49 132 notes;
#X obj 83 132 notes;
#X obj 117 132 notes;
#X obj 151 132 notes;
#X obj -154 111 f;
#X obj -120 111 f;
#X obj -87 111 f;
#X obj -53 111 f;
#X obj -19 111 f;
#X obj 15 111 f;
#X obj 49 111 f;
#X obj 83 111 f;
#X obj 117 111 f;
#X obj 151 111 f;
#X obj -67 27 bng 15 250 50 0 empty empty empty 17 7 0 10 -262144 -1
-1;
#X obj -52 27 bng 15 250 50 0 empty empty empty 17 7 0 10 -262144 -1
-1;
#X obj -37 27 bng 15 250 50 0 empty empty empty 17 7 0 10 -262144 -1
-1;
#X obj -22 27 bng 15 250 50 0 empty empty empty 17 7 0 10 -262144 -1
-1;
#X obj -7 27 bng 15 250 50 0 empty empty empty 17 7 0 10 -262144 -1
-1;
#X obj 8 27 bng 15 250 50 0 empty empty empty 17 7 0 10 -262144 -1
-1;
#X obj 23 27 bng 15 250 50 0 empty empty empty 17 7 0 10 -262144 -1
-1;
#X obj 38 27 bng 15 250 50 0 empty empty empty 17 7 0 10 -262144 -1
-1;
#X obj 53 27 bng 15 250 50 0 empty empty empty 17 7 0 10 -262144 -1
-1;
#X obj 68 27 bng 15 250 50 0 empty empty empty 17 7 0 10 -262144 -1
-1;
#X obj -67 10 route 0 1 2 3 4 5 6 7 8;
#X obj -154 72 delay 1;
#X obj -119 92 delay 1;
#X obj -87 71 delay 1;
#X obj -53 91 delay 1;
#X obj -19 71 delay 1;
#X obj 15 91 delay 1;
#X obj 49 70 delay 1;
#X obj 83 90 delay 1;
#X obj 117 71 delay 1;
#X obj -67 -24 r modeW;
#X obj -154 155 s W1;
#X obj -120 155 s W2;
#X obj -87 155 s W3;
#X obj -53 155 s W4;
#X obj -19 155 s W5;
#X obj 15 155 s W6;
#X obj 49 155 s W7;
#X obj 83 155 s W8;
#X obj 117 155 s W9;
#X obj -138 10 r 0X0;
#X connect 0 0 41 0;
#X connect 1 0 42 0;
#X connect 2 0 43 0;
#X connect 3 0 44 0;
#X connect 4 0 45 0;
#X connect 5 0 46 0;
#X connect 6 0 47 0;
#X connect 7 0 48 0;
#X connect 8 0 49 0;
#X connect 10 0 0 0;
#X connect 11 0 1 0;
#X connect 12 0 2 0;
#X connect 13 0 3 0;
#X connect 14 0 4 0;
#X connect 15 0 5 0;
#X connect 16 0 6 0;
#X connect 17 0 7 0;
#X connect 18 0 8 0;
#X connect 19 0 9 0;
#X connect 20 0 31 0;
#X connect 21 0 32 0;
#X connect 22 0 33 0;
#X connect 23 0 34 0;
#X connect 24 0 35 0;
#X connect 25 0 36 0;
#X connect 26 0 37 0;
#X connect 27 0 38 0;
#X connect 28 0 39 0;
#X connect 30 0 20 0;
#X connect 30 1 21 0;
#X connect 30 2 22 0;
#X connect 30 3 23 0;
#X connect 30 4 24 0;
#X connect 30 5 25 0;
#X connect 30 6 26 0;
#X connect 30 7 27 0;
#X connect 30 8 28 0;
#X connect 30 9 29 0;
#X connect 31 0 10 0;
#X connect 32 0 11 0;
#X connect 33 0 12 0;
#X connect 34 0 13 0;
#X connect 35 0 14 0;
#X connect 36 0 15 0;
#X connect 37 0 16 0;
#X connect 38 0 17 0;
#X connect 39 0 18 0;
#X connect 40 0 30 0;
#X connect 50 0 10 1;
#X connect 50 0 11 1;
#X connect 50 0 12 1;
#X connect 50 0 13 1;
#X connect 50 0 14 1;
#X connect 50 0 15 1;
#X connect 50 0 16 1;
#X connect 50 0 17 1;
#X connect 50 0 18 1;
#X connect 50 0 19 1;
#X restore -191 73 pd widthnotes;
#N canvas 624 185 450 300 heightnotes 0;
#X obj -144 142 notes;
#X obj -110 142 notes;
#X obj -77 142 notes;
#X obj -43 142 notes;
#X obj -9 142 notes;
#X obj 25 142 notes;
#X obj 59 142 notes;
#X obj 93 142 notes;
#X obj 127 142 notes;
#X obj 161 142 notes;
#X obj -144 121 f;
#X obj -110 121 f;
#X obj -77 121 f;
#X obj -43 121 f;
#X obj -9 121 f;
#X obj 25 121 f;
#X obj 59 121 f;
#X obj 93 121 f;
#X obj 127 121 f;
#X obj 161 121 f;
#X obj -57 37 bng 15 250 50 0 empty empty empty 17 7 0 10 -262144 -1
-1;
#X obj -42 37 bng 15 250 50 0 empty empty empty 17 7 0 10 -262144 -1
-1;
#X obj -27 37 bng 15 250 50 0 empty empty empty 17 7 0 10 -262144 -1
-1;
#X obj -12 37 bng 15 250 50 0 empty empty empty 17 7 0 10 -262144 -1
-1;
#X obj 3 37 bng 15 250 50 0 empty empty empty 17 7 0 10 -262144 -1
-1;
#X obj 18 37 bng 15 250 50 0 empty empty empty 17 7 0 10 -262144 -1
-1;
#X obj 33 37 bng 15 250 50 0 empty empty empty 17 7 0 10 -262144 -1
-1;
#X obj 48 37 bng 15 250 50 0 empty empty empty 17 7 0 10 -262144 -1
-1;
#X obj 63 37 bng 15 250 50 0 empty empty empty 17 7 0 10 -262144 -1
-1;
#X obj 78 37 bng 15 250 50 0 empty empty empty 17 7 0 10 -262144 -1
-1;
#X obj -57 20 route 0 1 2 3 4 5 6 7 8;
#X obj -144 82 delay 1;
#X obj -109 102 delay 1;
#X obj -77 81 delay 1;
#X obj -43 101 delay 1;
#X obj -9 81 delay 1;
#X obj 25 101 delay 1;
#X obj 59 80 delay 1;
#X obj 93 100 delay 1;
#X obj 127 81 delay 1;
#X obj -57 -14 r modeH;
#X obj -128 20 r 00X;
#X obj -144 165 s H1;
#X obj -110 165 s H2;
#X obj -77 165 s H3;
#X obj -43 165 s H4;
#X obj -9 165 s H5;
#X obj 25 165 s H6;
#X obj 59 165 s H7;
#X obj 93 165 s H8;
#X obj 127 165 s H9;
#X connect 0 0 42 0;
#X connect 1 0 43 0;
#X connect 2 0 44 0;
#X connect 3 0 45 0;
#X connect 4 0 46 0;
#X connect 5 0 47 0;
#X connect 6 0 48 0;
#X connect 7 0 49 0;
#X connect 8 0 50 0;
#X connect 10 0 0 0;
#X connect 11 0 1 0;
#X connect 12 0 2 0;
#X connect 13 0 3 0;
#X connect 14 0 4 0;
#X connect 15 0 5 0;
#X connect 16 0 6 0;
#X connect 17 0 7 0;
#X connect 18 0 8 0;
#X connect 19 0 9 0;
#X connect 20 0 31 0;
#X connect 21 0 32 0;
#X connect 22 0 33 0;
#X connect 23 0 34 0;
#X connect 24 0 35 0;
#X connect 25 0 36 0;
#X connect 26 0 37 0;
#X connect 27 0 38 0;
#X connect 28 0 39 0;
#X connect 30 0 20 0;
#X connect 30 1 21 0;
#X connect 30 2 22 0;
#X connect 30 3 23 0;
#X connect 30 4 24 0;
#X connect 30 5 25 0;
#X connect 30 6 26 0;
#X connect 30 7 27 0;
#X connect 30 8 28 0;
#X connect 30 9 29 0;
#X connect 31 0 10 0;
#X connect 32 0 11 0;
#X connect 33 0 12 0;
#X connect 34 0 13 0;
#X connect 35 0 14 0;
#X connect 36 0 15 0;
#X connect 37 0 16 0;
#X connect 38 0 17 0;
#X connect 39 0 18 0;
#X connect 40 0 30 0;
#X connect 41 0 10 1;
#X connect 41 0 11 1;
#X connect 41 0 12 1;
#X connect 41 0 13 1;
#X connect 41 0 14 1;
#X connect 41 0 15 1;
#X connect 41 0 16 1;
#X connect 41 0 17 1;
#X connect 41 0 18 1;
#X connect 41 0 19 1;
#X restore -151 117 pd heightnotes;
#X symbolatom 140 141 2 0 0 0 - H9 -;
#X symbolatom 140 96 2 0 0 0 - W9 -;
#X symbolatom 140 51 2 0 0 0 - L9 -;
#X connect 0 0 10 1;
#X connect 0 0 37 1;
#X connect 0 0 38 1;
#X connect 0 0 39 1;
#X connect 0 0 45 1;
#X connect 0 0 44 1;
#X connect 0 0 47 1;
#X connect 1 0 0 0;
#X connect 2 0 26 1;
#X connect 3 0 10 0;
#X connect 4 0 5 0;
#X connect 5 0 6 0;
#X connect 6 0 7 0;
#X connect 7 0 8 0;
#X connect 8 0 1 0;
#X connect 10 0 67 0;
#X connect 10 0 77 0;
#X connect 12 0 27 1;
#X connect 13 0 28 1;
#X connect 14 0 26 0;
#X connect 15 0 27 0;
#X connect 16 0 28 0;
#X connect 26 0 29 0;
#X connect 27 0 30 0;
#X connect 28 0 31 0;
#X connect 29 0 34 0;
#X connect 29 0 40 0;
#X connect 29 0 48 0;
#X connect 30 0 35 0;
#X connect 30 0 41 0;
#X connect 30 0 60 0;
#X connect 31 0 36 0;
#X connect 31 0 61 0;
#X connect 31 0 62 0;
#X connect 31 0 63 0;
#X connect 32 0 3 0;
#X connect 33 0 15 0;
#X connect 33 0 16 0;
#X connect 33 0 14 0;
#X connect 34 0 37 0;
#X connect 35 0 38 0;
#X connect 36 0 39 0;
#X connect 37 0 64 0;
#X connect 37 0 71 0;
#X connect 38 0 66 0;
#X connect 38 0 73 0;
#X connect 39 0 68 0;
#X connect 39 0 75 0;
#X connect 40 0 42 0;
#X connect 40 0 32 0;
#X connect 41 0 43 0;
#X connect 42 0 44 0;
#X connect 43 0 45 0;
#X connect 44 0 65 0;
#X connect 44 0 72 0;
#X connect 45 0 69 0;
#X connect 45 0 74 0;
#X connect 46 0 47 0;
#X connect 47 0 70 0;
#X connect 47 0 76 0;
#X connect 48 0 46 0;
#X connect 50 0 51 0;
#X connect 51 0 14 0;
#X connect 53 0 54 0;
#X connect 54 0 15 0;
#X connect 56 0 16 0;
#X connect 57 0 56 0;
#X connect 59 0 52 0;
#X connect 59 1 49 0;
#X connect 59 2 33 0;
#X connect 59 3 78 0;
#X connect 59 4 55 0;
#X connect 60 0 40 0;
#X connect 60 1 40 1;
#X connect 61 0 41 0;
#X connect 61 1 41 1;
#X connect 62 0 32 0;
#X connect 62 1 32 1;
#X connect 63 0 48 0;
#X connect 63 1 48 1;
#X coords 0 -1 1 1 270 170 2 10 20;
