#N canvas 198 22 919 834 10;
#X declare -lib la-kitchen;
#X declare -lib la-kitchen;
#X declare -lib la-kitchen;
#X declare -lib la-kitchen;
#X declare -lib la-kitchen;
#X declare -lib la-kitchen;
#X declare -lib la-kitchen;
#X declare -lib la-kitchen;
#X declare -lib la-kitchen;
#X declare -lib la-kitchen;
#X declare -lib la-kitchen;
#X declare -lib la-kitchen;
#X declare -lib la-kitchen;
#X declare -lib la-kitchen;
#X declare -lib la-kitchen;
#X declare -lib la-kitchen;
#X declare -lib la-kitchen;
#X declare -lib la-kitchen;
#X declare -lib la-kitchen;
#X declare -lib la-kitchen;
#X declare -lib la-kitchen;
#X declare -lib la-kitchen;
#X declare -lib la-kitchen;
#X declare -lib la-kitchen;
#X declare -lib la-kitchen;
#X obj 281 163 dac~ 1 2 3 4;
#X obj 57 156 ctlin;
#X floatatom 57 177 3 0 0 0 - - -;
#X floatatom 96 177 2 0 0 0 - - -;
#X floatatom 79 177 2 0 0 0 - - -;
#X obj -2 157 notein;
#X floatatom -2 177 2 0 0 0 - - -;
#X floatatom 14 177 3 0 0 0 - - -;
#X floatatom 37 177 2 0 0 0 - - -;
#N canvas 597 113 1124 534 korg 0;
#X obj -8 -83 inlet;
#X floatatom 115 202 5 0 0 2 Freq - -;
#X msg -8 16 132.376 0 \;;
#X obj 115 147 bng 15 250 50 0 empty empty Stop 0 -5 2 10 -258113 -1
-1;
#X obj 74 -187 ctlin;
#X obj 87 -165 == 16;
#X obj 74 -142 spigot;
#X msg 59 -11 add \$1;
#X msg 7 -11 set \$1;
#X obj 74 -54 * 1000;
#X obj 74 -100 / 127;
#X obj 59 -33 f;
#X obj -8 -58 t b b f;
#X obj 295 -75 inlet;
#X floatatom 215 202 5 0 0 2 Freq - -;
#X msg 295 24 128.382 0 \;;
#X obj 215 147 bng 15 250 50 0 empty empty Stop 0 -5 2 10 -258113 -1
-1;
#X obj 377 -188 ctlin;
#X obj 377 -143 spigot;
#X msg 362 -3 add \$1;
#X msg 310 -3 set \$1;
#X obj 377 -55 * 1000;
#X obj 377 -101 / 127;
#X obj 362 -25 f;
#X obj 295 -50 t b b f;
#X obj 590 -77 inlet;
#X floatatom 315 202 5 0 0 2 Freq - -;
#X msg 590 22 80.9957 0 \;;
#X obj 315 147 bng 15 250 50 0 empty empty Stop 0 -5 2 10 -258113 -1
-1;
#X obj 672 -188 ctlin;
#X obj 672 -143 spigot;
#X msg 657 -5 add \$1;
#X msg 605 -5 set \$1;
#X obj 672 -55 * 1000;
#X obj 672 -101 / 127;
#X obj 657 -27 f;
#X obj 590 -52 t b b f;
#X obj 152 -84 inlet;
#X floatatom 165 202 5 0 0 2 Freq - -;
#X msg 152 15 184.406 0 \;;
#X obj 164 147 bng 15 250 50 0 empty empty Stop 0 -5 2 10 -258113 -1
-1;
#X obj 234 -188 ctlin;
#X obj 234 -143 spigot;
#X msg 219 -12 add \$1;
#X msg 167 -12 set \$1;
#X obj 234 -55 * 1000;
#X obj 234 -101 / 127;
#X obj 219 -34 f;
#X obj 445 -78 inlet;
#X floatatom 265 202 5 0 0 2 Freq - -;
#X msg 445 21 151.797 0 \;;
#X obj 265 147 bng 15 250 50 0 empty empty Stop 0 -5 2 10 -258113 -1
-1;
#X obj 527 -188 ctlin;
#X obj 527 -143 spigot;
#X msg 512 -6 add \$1;
#X msg 460 -6 set \$1;
#X obj 527 -55 * 1000;
#X obj 527 -101 / 127;
#X obj 512 -28 f;
#X obj 740 -75 inlet;
#X floatatom 365 202 5 0 0 2 Freq - -;
#X msg 740 24 155.19 0 \;;
#X obj 365 147 bng 15 250 50 0 empty empty Stop 0 -5 2 10 -258113 -1
-1;
#X obj 822 -188 ctlin;
#X obj 822 -143 spigot;
#X msg 807 -3 add \$1;
#X msg 755 -3 set \$1;
#X obj 822 -55 * 1000;
#X obj 822 -101 / 127;
#X obj 807 -25 f;
#X obj 892 -71 inlet;
#X floatatom 415 202 5 0 0 2 Freq - -;
#X msg 892 28 201.409 0 \;;
#X obj 415 147 bng 15 250 50 0 empty empty Stop 0 -5 2 10 -258113 -1
-1;
#X obj 974 -188 ctlin;
#X obj 974 -143 spigot;
#X msg 959 1 add \$1;
#X msg 907 1 set \$1;
#X obj 974 -55 * 1000;
#X obj 974 -101 / 127;
#X obj 959 -21 f;
#X obj 835 -166 == 21;
#X obj 987 -166 == 22;
#X floatatom 415 118 7 0 0 2 Oblq_XXX - -;
#X floatatom 115 118 7 0 0 2 Lng_X00 - -;
#X floatatom 215 118 7 0 0 2 Wid_0X0 - -;
#X floatatom 315 118 7 0 0 2 Hgt_00X - -;
#X floatatom 165 118 7 0 0 2 L/W_XX0 - -;
#X floatatom 265 118 7 0 0 2 W/H_0XX - -;
#X floatatom 365 118 7 0 0 2 L/H_X0X - -;
#X obj -28 -32 s bassnoteL;
#X obj 277 -25 s bassnoteW;
#X obj 576 -29 s bassnoteH;
#X obj 247 -166 == 17;
#X obj 390 -166 == 18;
#X obj 540 -166 == 19;
#X obj 685 -166 == 20;
#X obj 154 -55 t b f;
#X obj 308 -244 r tan;
#X obj 307 -222 route 0 1 2 3;
#X obj 445 -53 t b f;
#X obj 740 -50 t b f;
#X obj 892 -46 t b f;
#X obj 74 -78 * 300;
#X obj 234 -79 * 300;
#X obj 377 -79 * 300;
#X obj 527 -79 * 300;
#X obj 672 -79 * 300;
#X obj 822 -79 * 300;
#X obj 974 -79 * 300;
#X obj 93 16 % 60;
#X floatatom 131 168 2 0 0 2 - - -;
#X obj 62 16 / 60;
#X obj 62 39 int;
#X floatatom 115 168 1 0 0 1 : - -;
#X obj 234 11 % 60;
#X floatatom 181 168 2 0 0 2 - - -;
#X obj 223 37 / 60;
#X obj 223 60 int;
#X floatatom 164 168 1 0 0 1 : - -;
#X obj 384 21 % 60;
#X floatatom 231 168 2 0 0 2 - - -;
#X obj 373 47 / 60;
#X obj 373 70 int;
#X floatatom 215 168 1 0 0 1 : - -;
#X obj 524 17 % 60;
#X floatatom 281 168 2 0 0 2 - - -;
#X obj 513 43 / 60;
#X obj 513 66 int;
#X floatatom 265 168 1 0 0 1 : - -;
#X obj 682 12 % 60;
#X floatatom 331 168 2 0 0 2 - - -;
#X obj 671 38 / 60;
#X obj 671 61 int;
#X floatatom 315 168 1 0 0 1 : - -;
#X obj 835 22 % 60;
#X floatatom 381 168 2 0 0 2 - - -;
#X obj 824 48 / 60;
#X obj 824 71 int;
#X floatatom 365 168 1 0 0 1 : - -;
#X obj 995 27 % 60;
#X floatatom 431 168 2 0 0 2 - - -;
#X obj 984 53 / 60;
#X obj 984 76 int;
#X floatatom 415 168 1 0 0 1 : - -;
#X obj -35 69 s length;
#X obj -35 45 sweep;
#X obj 125 66 s L/W;
#X obj 125 42 sweep;
#X obj 280 74 s width;
#X obj 280 49 sweep;
#X obj 418 46 sweep;
#X obj 563 49 sweep;
#X obj 714 49 sweep;
#X obj 867 58 sweep;
#X obj 418 69 s W/H;
#X obj 563 73 s height;
#X obj 714 73 s L/H;
#X obj 912 80 s oblique;
#X obj 425 -216 korgrbuttons;
#X obj 74 -121 spigot;
#X obj 234 -121 spigot;
#X obj 377 -121 spigot;
#X obj 527 -122 spigot;
#X obj 672 -121 spigot;
#X obj 822 -121 spigot;
#X obj 974 -122 spigot;
#X obj 124 -165 - 1;
#X obj 124 -142 abs;
#X obj 284 -165 - 1;
#X obj 284 -142 abs;
#X obj 427 -166 - 1;
#X obj 427 -143 abs;
#X obj 577 -166 - 1;
#X obj 577 -143 abs;
#X obj 727 -166 - 1;
#X obj 727 -143 abs;
#X obj 877 -166 - 1;
#X obj 877 -143 abs;
#X obj 1027 -166 - 1;
#X obj 1027 -143 abs;
#X connect 0 0 84 0;
#X connect 0 0 90 0;
#X connect 2 0 146 1;
#X connect 3 0 146 0;
#X connect 4 0 6 0;
#X connect 4 1 5 0;
#X connect 5 0 6 1;
#X connect 6 0 160 0;
#X connect 7 0 2 0;
#X connect 8 0 2 0;
#X connect 9 0 11 1;
#X connect 10 0 103 0;
#X connect 11 0 7 0;
#X connect 12 0 2 0;
#X connect 12 1 11 0;
#X connect 12 2 8 0;
#X connect 13 0 85 0;
#X connect 13 0 91 0;
#X connect 15 0 150 1;
#X connect 16 0 150 0;
#X connect 17 0 18 0;
#X connect 17 1 94 0;
#X connect 18 0 162 0;
#X connect 19 0 15 0;
#X connect 20 0 15 0;
#X connect 21 0 23 1;
#X connect 22 0 105 0;
#X connect 23 0 19 0;
#X connect 24 0 15 0;
#X connect 24 1 23 0;
#X connect 24 2 20 0;
#X connect 25 0 86 0;
#X connect 25 0 92 0;
#X connect 27 0 152 1;
#X connect 28 0 152 0;
#X connect 29 0 30 0;
#X connect 29 1 96 0;
#X connect 30 0 164 0;
#X connect 31 0 27 0;
#X connect 32 0 27 0;
#X connect 33 0 35 1;
#X connect 34 0 107 0;
#X connect 35 0 31 0;
#X connect 36 0 27 0;
#X connect 36 1 35 0;
#X connect 36 2 32 0;
#X connect 37 0 87 0;
#X connect 39 0 148 1;
#X connect 40 0 148 0;
#X connect 41 0 42 0;
#X connect 41 1 93 0;
#X connect 42 0 161 0;
#X connect 43 0 39 0;
#X connect 44 0 39 0;
#X connect 45 0 47 1;
#X connect 46 0 104 0;
#X connect 47 0 43 0;
#X connect 48 0 88 0;
#X connect 50 0 151 1;
#X connect 51 0 151 0;
#X connect 52 0 53 0;
#X connect 52 1 95 0;
#X connect 53 0 163 0;
#X connect 54 0 50 0;
#X connect 55 0 50 0;
#X connect 56 0 58 1;
#X connect 57 0 106 0;
#X connect 58 0 54 0;
#X connect 59 0 89 0;
#X connect 61 0 153 1;
#X connect 62 0 153 0;
#X connect 63 0 64 0;
#X connect 63 1 81 0;
#X connect 64 0 165 0;
#X connect 65 0 61 0;
#X connect 66 0 61 0;
#X connect 67 0 69 1;
#X connect 68 0 108 0;
#X connect 69 0 65 0;
#X connect 70 0 83 0;
#X connect 72 0 154 1;
#X connect 73 0 154 0;
#X connect 74 0 75 0;
#X connect 74 1 82 0;
#X connect 75 0 166 0;
#X connect 76 0 72 0;
#X connect 77 0 72 0;
#X connect 78 0 80 1;
#X connect 79 0 109 0;
#X connect 80 0 76 0;
#X connect 81 0 64 1;
#X connect 82 0 75 1;
#X connect 83 0 102 0;
#X connect 84 0 12 0;
#X connect 85 0 24 0;
#X connect 86 0 36 0;
#X connect 87 0 97 0;
#X connect 88 0 100 0;
#X connect 89 0 101 0;
#X connect 93 0 42 1;
#X connect 94 0 18 1;
#X connect 95 0 53 1;
#X connect 96 0 30 1;
#X connect 97 0 47 0;
#X connect 97 1 44 0;
#X connect 98 0 99 0;
#X connect 99 0 39 0;
#X connect 99 1 50 0;
#X connect 99 2 61 0;
#X connect 99 3 72 0;
#X connect 100 0 58 0;
#X connect 100 1 55 0;
#X connect 101 0 69 0;
#X connect 101 1 66 0;
#X connect 102 0 80 0;
#X connect 102 1 77 0;
#X connect 103 0 9 0;
#X connect 103 0 112 0;
#X connect 103 0 110 0;
#X connect 104 0 45 0;
#X connect 104 0 117 0;
#X connect 104 0 115 0;
#X connect 105 0 21 0;
#X connect 105 0 120 0;
#X connect 105 0 122 0;
#X connect 106 0 56 0;
#X connect 106 0 125 0;
#X connect 106 0 127 0;
#X connect 107 0 33 0;
#X connect 107 0 130 0;
#X connect 107 0 132 0;
#X connect 108 0 67 0;
#X connect 108 0 135 0;
#X connect 108 0 137 0;
#X connect 109 0 78 0;
#X connect 109 0 140 0;
#X connect 109 0 142 0;
#X connect 110 0 111 0;
#X connect 112 0 113 0;
#X connect 113 0 114 0;
#X connect 115 0 116 0;
#X connect 117 0 118 0;
#X connect 118 0 119 0;
#X connect 120 0 121 0;
#X connect 122 0 123 0;
#X connect 123 0 124 0;
#X connect 125 0 126 0;
#X connect 127 0 128 0;
#X connect 128 0 129 0;
#X connect 130 0 131 0;
#X connect 132 0 133 0;
#X connect 133 0 134 0;
#X connect 135 0 136 0;
#X connect 137 0 138 0;
#X connect 138 0 139 0;
#X connect 140 0 141 0;
#X connect 142 0 143 0;
#X connect 143 0 144 0;
#X connect 146 0 1 0;
#X connect 146 0 145 0;
#X connect 148 0 147 0;
#X connect 148 0 38 0;
#X connect 150 0 149 0;
#X connect 150 0 14 0;
#X connect 151 0 49 0;
#X connect 151 0 155 0;
#X connect 152 0 156 0;
#X connect 152 0 26 0;
#X connect 153 0 157 0;
#X connect 153 0 60 0;
#X connect 154 0 71 0;
#X connect 154 0 158 0;
#X connect 159 0 167 0;
#X connect 159 1 169 0;
#X connect 159 2 171 0;
#X connect 159 3 173 0;
#X connect 159 4 175 0;
#X connect 159 5 177 0;
#X connect 159 6 179 0;
#X connect 160 0 10 0;
#X connect 161 0 46 0;
#X connect 162 0 22 0;
#X connect 163 0 57 0;
#X connect 164 0 34 0;
#X connect 165 0 68 0;
#X connect 166 0 79 0;
#X connect 167 0 168 0;
#X connect 168 0 160 1;
#X connect 169 0 170 0;
#X connect 170 0 161 1;
#X connect 171 0 172 0;
#X connect 172 0 162 1;
#X connect 173 0 174 0;
#X connect 174 0 163 1;
#X connect 175 0 176 0;
#X connect 176 0 164 1;
#X connect 177 0 178 0;
#X connect 178 0 165 1;
#X connect 179 0 180 0;
#X connect 180 0 166 1;
#X coords 0 0 1 1 380 130 2 100 100;
#X restore 123 -178 pd korg dials;
#X obj 124 -378 wavecalculator;
#X obj 123 -48 wavetamber;
#X obj 129 200 justintonationtablekorg;
#X obj 503 -178 dimensionsnew;
#N canvas 0 22 450 278 (subpatch) 0;
#X array channel1 100 float 3;
#A 0 0 0 0 0 0 0 0 0 0 0 0 0 0 0 0 0 0 0 0 0 0 0 0 0 0 0 0 0 0 0 0
0 0 0 0 0 0 0 0 0 0 0 0 0 0 0 0 0 0 0 0 0 0 0 0 0 0 0 0 0 0 0 0 0 0
0 0 0 0 0 0 0 0 0 0 0 0 0 0 0 0 0 0 0 0 0 0 0 0 0 0 0 0 0 0 0 0 0 0
0;
#X coords 0 1 99 -1 150 105 2 0 0;
#X restore -27 -336 graph;
#X obj 503 -48 standingvcf;
#N canvas 0 22 450 278 (subpatch) 0;
#X array channel2 100 float 3;
#A 0 0 0 0 0 0 0 0 0 0 0 0 0 0 0 0 0 0 0 0 0 0 0 0 0 0 0 0 0 0 0 0
0 0 0 0 0 0 0 0 0 0 0 0 0 0 0 0 0 0 0 0 0 0 0 0 0 0 0 0 0 0 0 0 0 0
0 0 0 0 0 0 0 0 0 0 0 0 0 0 0 0 0 0 0 0 0 0 0 0 0 0 0 0 0 0 0 0 0 0
0;
#X coords 0 1 99 -1 150 105 1 0 0;
#X restore -27 -215 graph;
#N canvas 0 22 450 278 (subpatch) 0;
#X array channel3 100 float 3;
#A 0 0 0 0 0 0 0 0 0 0 0 0 0 0 0 0 0 0 0 0 0 0 0 0 0 0 0 0 0 0 0 0
0 0 0 0 0 0 0 0 0 0 0 0 0 0 0 0 0 0 0 0 0 0 0 0 0 0 0 0 0 0 0 0 0 0
0 0 0 0 0 0 0 0 0 0 0 0 0 0 0 0 0 0 0 0 0 0 0 0 0 0 0 0 0 0 0 0 0 0
0;
#X coords 0 1 99 -1 150 105 1 0 0;
#X restore -27 -94 graph;
#N canvas 0 22 450 278 (subpatch) 0;
#X array channel4 100 float 3;
#A 0 0 0 0 0 0 0 0 0 0 0 0 0 0 0 0 0 0 0 0 0 0 0 0 0 0 0 0 0 0 0 0
0 0 0 0 0 0 0 0 0 0 0 0 0 0 0 0 0 0 0 0 0 0 0 0 0 0 0 0 0 0 0 0 0 0
0 0 0 0 0 0 0 0 0 0 0 0 0 0 0 0 0 0 0 0 0 0 0 0 0 0 0 0 0 0 0 0 0 0
0;
#X coords 0 1 99 -1 150 105 1 0 0;
#X restore -27 27 graph;
#X connect 1 0 2 0;
#X connect 1 1 4 0;
#X connect 1 2 3 0;
#X connect 5 0 6 0;
#X connect 5 1 7 0;
#X connect 5 2 8 0;
#X connect 10 0 9 0;
#X connect 10 1 9 1;
#X connect 10 2 9 2;
#X connect 10 3 9 3;
#X connect 10 4 9 4;
#X connect 10 5 9 5;
#X connect 10 6 9 6;
#X connect 11 0 0 0;
#X connect 11 1 0 1;
#X connect 11 2 0 2;
#X connect 11 3 0 3;
